HIERARCHY
ROOT root
{
	OFFSET	0	13.1	24.9
	CHANNELS 6  Xposition Yposition Zposition Xrotation Yrotation Zrotation
	JOINT spine_1
	{
		OFFSET	0	9.99999	0
		CHANNELS 3  Xrotation Yrotation Zrotation
		JOINT spine_2
		{
			OFFSET	0	112	-10
			CHANNELS 3  Xrotation Yrotation Zrotation
			JOINT spine_3
			{
				OFFSET	0	206.5	19.3
				CHANNELS 3  Xrotation Yrotation Zrotation
				JOINT spine_4
				{
					OFFSET	0	110.4	14.6
					CHANNELS 3  Xrotation Yrotation Zrotation
					JOINT neck_1
					{
						OFFSET	0	71.8	-50.3
						CHANNELS 3  Xrotation Yrotation Zrotation
						JOINT neck_2
						{
							OFFSET	0	86.2	-25.8
							CHANNELS 3  Xrotation Yrotation Zrotation
							JOINT head_ee
							{
								OFFSET	0	179.8	-8.7
								CHANNELS 3  Xrotation Yrotation Zrotation
								End Site
								{
									OFFSET	1	0	0
								}
							}
						}
					}
					JOINT left_clavicle
					{
						OFFSET	-43.2	22.4	-70.8
						CHANNELS 3  Xrotation Yrotation Zrotation
						JOINT left_shoulder
						{
							OFFSET	-93.9	-5.79999	48.7
							CHANNELS 3  Xrotation Yrotation Zrotation
							JOINT left_elbow
							{
								OFFSET	-291.4	-30.8	15.2
								CHANNELS 3  Xrotation Yrotation Zrotation
								JOINT left_lowarm_twist
								{
									OFFSET	-110.7	-3.89999	13.6
									CHANNELS 3  Xrotation Yrotation Zrotation
									JOINT left_hand
									{
										OFFSET	-110.7	-3.89999	13.6
										CHANNELS 3  Xrotation Yrotation Zrotation
										JOINT left_ee
										{
											OFFSET	-80.8	-5.10001	12.1
											CHANNELS 3  Xrotation Yrotation Zrotation
											End Site
											{
												OFFSET	1	0	0
											}
										}
									}
								}
							}
						}
					}
					JOINT right_clavicle
					{
						OFFSET	43.2	22.4	-70.8
						CHANNELS 3  Xrotation Yrotation Zrotation
						JOINT right_shoulder
						{
							OFFSET	93.9	-5.79999	48.7
							CHANNELS 3  Xrotation Yrotation Zrotation
							JOINT right_elbow
							{
								OFFSET	291.4	-30.8	15.2
								CHANNELS 3  Xrotation Yrotation Zrotation
								JOINT right_lowarm_twist
								{
									OFFSET	110.7	-3.89999	13.6
									CHANNELS 3  Xrotation Yrotation Zrotation
									JOINT right_hand
									{
										OFFSET	110.7	-3.89999	13.6
										CHANNELS 3  Xrotation Yrotation Zrotation
										JOINT right_ee
										{
											OFFSET	80.8	-5.10001	12.1
											CHANNELS 3  Xrotation Yrotation Zrotation
											End Site
											{
												OFFSET	1	0	0
											}
										}
									}
								}
							}
						}
					}
				}
			}
		}
	}
	JOINT left_hip
	{
		OFFSET	-82.8	-127.5	0.300001
		CHANNELS 3  Xrotation Yrotation Zrotation
		JOINT left_knee
		{
			OFFSET	-28.2	-396.7	2.2
			CHANNELS 3  Xrotation Yrotation Zrotation
			JOINT left_ankle
			{
				OFFSET	-11.7	-411.3	35.4
				CHANNELS 3  Xrotation Yrotation Zrotation
				JOINT left_toes
				{
					OFFSET	0	-60	-88.6
					CHANNELS 3  Xrotation Yrotation Zrotation
					JOINT left_foot_ee
					{
						OFFSET	-22.5	-16.5	-42.2
						CHANNELS 3  Xrotation Yrotation Zrotation
						End Site
						{
							OFFSET	1	0	0
						}
					}
				}
			}
		}
	}
	JOINT right_hip
	{
		OFFSET	82.8	-127.5	0.300001
		CHANNELS 3  Xrotation Yrotation Zrotation
		JOINT right_knee
		{
			OFFSET	28.2	-396.7	2.2
			CHANNELS 3  Xrotation Yrotation Zrotation
			JOINT right_ankle
			{
				OFFSET	11.7	-411.3	35.4
				CHANNELS 3  Xrotation Yrotation Zrotation
				JOINT right_toes
				{
					OFFSET	0	-60	-88.6
					CHANNELS 3  Xrotation Yrotation Zrotation
					JOINT right_foot_ee
					{
						OFFSET	22.5	-16.5	-42.2
						CHANNELS 3  Xrotation Yrotation Zrotation
						End Site
						{
							OFFSET	1	0	0
						}
					}
				}
			}
		}
	}
}
MOTION
Frames: 13
Frame Time: 0.02
2750.74 730.587 -666.689 150.651 -78.1217 164.083 -2.97786 -0.418264 -2.61899 -2.97408 -0.250823 -2.64028 -2.95744 0.44541 -2.61452 -2.96697 0.0270577 -2.65202 -16.9921 13.1298 5.62308 -17.4495 22.0969 10.1766 -0.0 0.0 -0.0 10.4988 18.7663 18.4858 -18.8985 -31.326 46.1683 1.18307 -30.3718 0.321132 -49.4287 -4.00499 4.65269 -1.2883 27.0058 3.49378 -0.0 0.0 -0.0 4.33516 9.99678 -7.80129 -6.41866 24.0603 -64.0204 0.928017 24.6885 -0.203095 -21.0854 1.19893 -2.3996 1.65225 8.28454 -7.66053 0.0 0.0 0.0 1.22599 -0.838886 -15.7018 -12.3109 0.308006 1.86057 34.5261 7.29199 -4.354 -31.0735 0.0 0.0 -0.0 0.0 -0.0 1.43261 2.22711 -11.9104 -45.7798 0.874803 -6.78768 -24.5327 -23.5039 -3.81786 13.6243 -0.0 -0.0 0.0 0.0 0.0 
2766.67 736.108 -669.079 150.782 -77.9182 164.092 -3.0148 -0.600788 -2.70707 -3.01082 -0.427379 -2.73978 -2.98453 0.301993 -2.75641 -2.9951 -0.136948 -2.76951 -18.4439 13.2368 7.69521 -18.8551 21.399 12.426 -0.0 0.0 -0.0 10.6469 18.5029 18.7794 -17.0564 -31.3716 46.3092 1.16277 -29.9409 0.31093 -50.2081 -4.09619 4.69374 -2.52213 28.5748 -2.47134 -0.0 0.0 -0.0 4.46788 9.63259 -8.10186 -7.37384 23.4124 -63.5768 0.748044 20.3326 -0.134142 -22.0078 1.27093 -2.49329 1.05468 5.5571 -4.7618 0.0 0.0 0.0 -0.221318 0.601219 -15.0898 -10.927 0.293434 1.64873 34.8798 11.6615 -4.41134 -31.4847 0.0 0.0 -0.0 0.0 -0.0 4.25938 4.52646 -12.4937 -42.5071 0.633923 -6.34564 -24.5792 -22.748 -3.81207 10.9266 -0.0 -0.0 0.0 0.0 0.0 
2778.14 738.913 -675.18 153.126 -75.8516 165.801 -2.88831 -0.445372 -2.69945 -2.8843 -0.272762 -2.72229 -2.866 0.441273 -2.70012 -2.87617 0.00946824 -2.73589 -19.3534 13.4259 10.0875 -19.6369 20.6823 14.8679 -0.0 0.0 -0.0 10.6328 17.7113 18.8952 -16.1886 -32.5685 46.2094 1.1142 -28.8952 0.287073 -49.7944 -4.04771 4.67211 -2.86718 27.1852 -5.09221 -0.0 0.0 -0.0 4.43521 9.54521 -8.0398 -8.2181 23.336 -62.9115 0.634714 17.4542 -0.0974333 -22.5259 1.31203 -2.54541 0.931137 3.11295 -4.94892 0.0 0.0 0.0 -1.59609 2.68786 -13.4377 -10.2077 0.283838 1.53878 35.0471 16.0115 -4.47665 -33.8935 0.0 0.0 -0.0 0.0 -0.0 6.3924 6.87399 -12.2381 -37.4013 0.309771 -5.63103 -23.3268 -25.3958 -3.6641 11.1608 -0.0 -0.0 0.0 0.0 0.0 
2787.6 740.421 -677.003 156.771 -74.3302 169.535 -2.63989 -0.553243 -2.8198 -2.63554 -0.372765 -2.84926 -2.61127 0.364787 -2.85029 -2.6226 -0.0897489 -2.87212 -18.8301 14.1819 10.2266 -19.1542 21.9656 15.2008 -0.0 0.0 -0.0 10.8194 17.5663 19.2378 -13.7402 -32.0774 46.0688 1.03964 -27.2482 0.251986 -49.5674 -4.02118 4.66009 -2.92089 25.815 -6.14212 -0.0 0.0 -0.0 4.48184 9.13315 -8.16363 -9.556 23.8124 -62.4234 0.505633 14.0621 -0.0623624 -23.3949 1.38203 -2.63199 0.546122 3.1824 -2.32602 0.0 0.0 0.0 -2.65448 2.47033 -13.2371 -9.54888 0.27384 1.43818 35.7295 18.8776 -4.59267 -36.057 0.0 0.0 -0.0 0.0 -0.0 6.81355 7.83063 -13.03 -34.8343 0.171244 -5.26177 -21.897 -26.3823 -3.45712 9.00145 -0.0 -0.0 0.0 0.0 0.0 
2799.76 740.837 -676.602 158.113 -73.3202 170.771 -2.5179 -0.48734 -2.91262 -2.51323 -0.301097 -2.9377 -2.49203 0.450645 -2.91852 -2.50391 -0.0157278 -2.95304 -18.8527 14.4857 10.0276 -19.2342 22.6618 15.1612 -0.0 0.0 -0.0 10.7283 17.5173 19.0911 -11.9028 -32.6594 46.0278 1.07352 -28.0029 0.267695 -49.2772 -3.98732 4.64457 -3.22328 24.655 -8.50842 -0.0 0.0 -0.0 4.41382 8.86913 -8.03994 -11.3699 23.4443 -62.1719 0.437905 12.2395 -0.0469515 -24.4518 1.46894 -2.73586 0.27998 1.70914 -1.15538 0.0 0.0 0.0 -3.34278 3.63654 -12.7376 -9.68484 0.275998 1.45893 37.6678 19.7712 -4.80227 -37.5071 0.0 0.0 -0.0 0.0 -0.0 7.85289 10.6825 -14.0049 -33.3875 0.100517 -5.05107 -20.9958 -25.9405 -3.306 9.08167 -0.0 -0.0 0.0 0.0 0.0 
2806.87 740.029 -679.928 158.849 -71.9249 171.536 -2.45496 -0.510524 -3.01176 -2.44997 -0.317934 -3.03811 -2.42702 0.456292 -3.02044 -2.43975 -0.0262258 -3.05457 -16.703 15.3551 9.64481 -17.0578 24.0959 14.6475 -0.0 0.0 -0.0 10.725 17.7737 19.0406 -9.95339 -33.2625 46.1904 1.12535 -29.1372 0.292482 -49.6175 -4.02703 4.66275 -3.45352 23.84 -10.3115 -0.0 0.0 -0.0 4.40286 9.42718 -7.98049 -12.0213 23.1098 -61.4741 0.371584 10.43 -0.033915 -24.7214 1.49142 -2.7621 0.0163465 -0.247787 -0.213484 0.0 0.0 0.0 -4.11479 4.44453 -12.3105 -9.57892 0.274321 1.44276 36.7954 21.5965 -4.75779 -40.0358 0.0 0.0 -0.0 0.0 -0.0 10.3665 12.1611 -14.556 -31.1281 0.000794436 -4.71875 -19.311 -26.2905 -3.0446 9.20823 -0.0 -0.0 0.0 0.0 0.0 
2820.03 736.989 -686.94 159.418 -71.7612 171.662 -2.33137 -0.508947 -3.09878 -2.32608 -0.310831 -3.12485 -2.30289 0.478291 -3.10366 -2.31633 -0.0176246 -3.14021 -18.8074 14.7131 8.64801 -19.3441 23.8119 14.017 -0.0 0.0 -0.0 10.1473 17.8296 18.0578 -8.02402 -34.0471 47.6884 1.29649 -32.7088 0.380472 -50.8957 -4.17712 4.72893 -3.28232 19.0755 -12.0514 -0.0 0.0 -0.0 4.50858 10.3659 -8.13748 -15.25 21.5738 -60.2239 0.328221 9.23517 -0.0265095 -24.0592 1.43643 -2.69745 -0.180442 -3.99786 -0.48538 0.0 0.0 0.0 -6.90649 7.58006 -10.4337 -4.9375 0.171569 0.738102 38.1049 19.6196 -4.84124 -39.6392 0.0 0.0 -0.0 0.0 -0.0 18.4503 13.602 -15.9284 -29.1534 -0.0755612 -4.42533 -17.2917 -29.3423 -2.77397 12.2741 -0.0 -0.0 0.0 0.0 0.0 
2830.69 735.415 -689.244 162.109 -70.97 174.629 -2.1182 -0.436719 -3.36803 -2.11192 -0.221644 -3.38896 -2.09211 0.618481 -3.33946 -2.10766 0.0836301 -3.39516 -16.7614 14.7187 7.00145 -17.275 24.3558 12.02 -0.0 0.0 -0.0 9.92186 18.2206 17.6204 -5.99721 -34.3096 49.0103 1.41428 -35.0128 0.446116 -51.3574 -4.23168 4.75201 -3.64602 18.684 -14.5326 -0.0 0.0 -0.0 4.49317 10.5475 -8.09296 -16.5756 20.1234 -59.807 0.265502 7.49282 -0.0173853 -24.1011 1.43989 -2.70157 -0.544762 -5.80745 1.13907 0.0 0.0 0.0 -5.8446 8.5301 -10.7173 -7.23255 0.229516 1.08552 37.8894 19.5125 -4.81819 -40.1262 0.0 0.0 -0.0 0.0 -0.0 21.1931 16.11 -16.7817 -27.9223 -0.118022 -4.24117 -15.2472 -28.2146 -2.42492 10.8549 -0.0 -0.0 0.0 0.0 0.0 
2839.3 730.931 -691.958 164.127 -70.1565 176.26 -2.02635 -0.420183 -3.48271 -2.01962 -0.197856 -3.50236 -2.00061 0.664011 -3.4446 -2.01715 0.112017 -3.50615 -17.4601 14.7687 6.5172 -18.0744 24.8312 11.7813 -0.0 0.0 -0.0 9.94945 18.9737 17.5459 -3.87003 -33.7784 49.9353 1.58758 -38.1801 0.54947 -52.0383 -4.31249 4.78524 -3.64376 16.408 -15.8711 -0.0 0.0 -0.0 4.06216 10.5033 -7.19695 -18.3076 19.0747 -59.7056 0.341002 9.58823 -0.0285996 -23.7526 1.41123 -2.66732 -0.624229 -7.56687 0.90143 0.0 0.0 0.0 -5.56216 10.5332 -9.97538 -6.12464 0.203282 0.917525 39.1826 17.9638 -4.9092 -40.0371 0.0 0.0 -0.0 0.0 -0.0 23.4669 19.0468 -17.0633 -27.229 -0.140188 -4.13708 -9.70595 -28.7144 -1.5396 12.6405 -0.0 -0.0 0.0 0.0 0.0 
2845.4 730.868 -693.708 165.916 -69.8412 178.186 -1.92691 -0.437058 -3.74394 -1.91914 -0.198108 -3.76413 -1.89837 0.721267 -3.69978 -1.91745 0.128338 -3.76715 -17.7055 14.5884 5.77233 -18.3741 24.9233 11.0952 -0.0 0.0 -0.0 10.3066 20.3265 17.894 -2.3424 -33.6286 50.4716 1.73055 -40.6018 0.640224 -53.0486 -4.43309 4.83277 -3.65525 14.8537 -16.8632 -0.0 0.0 -0.0 4.20488 11.1899 -7.44505 -19.6724 17.9554 -59.4998 0.314728 8.86167 -0.0243874 -23.4529 1.38675 -2.63773 -0.917512 -10.0647 1.70773 0.0 0.0 0.0 -5.42481 11.4462 -9.80946 -5.11624 0.176582 0.765075 40.2465 17.471 -4.99724 -39.9886 0.0 0.0 -0.0 0.0 -0.0 25.923 20.779 -17.971 -19.4628 -0.301644 -2.95715 -3.38844 -28.6795 -0.532137 13.4772 -0.0 -0.0 0.0 0.0 0.0 
2855.25 722.942 -695.67 167.562 -69.3623 179.566 -1.84941 -0.43182 -3.74475 -1.84163 -0.19283 -3.7646 -1.82138 0.721536 -3.69992 -1.84046 0.12858 -3.76734 -18.3863 14.2115 5.97931 -19.0456 24.1786 11.2904 -0.0 0.0 -0.0 10.4114 20.9712 17.9435 -0.305239 -32.4837 51.0259 2.09813 -46.0999 0.892847 -53.437 -4.47968 4.85048 -3.28453 13.2986 -15.3369 -0.0 0.0 -0.0 2.85094 11.2696 -4.61107 -20.0413 17.7843 -61.523 0.421775 11.8015 -0.043592 -23.6775 1.40508 -2.65991 -0.994017 -10.8168 1.86565 0.0 0.0 0.0 -5.84432 12.4239 -9.24667 -4.0606 0.145759 0.606002 41.5307 15.3806 -5.07368 -40.2054 0.0 0.0 -0.0 0.0 -0.0 27.5232 22.3493 -17.5956 -15.3025 -0.322003 -2.31929 -3.30233 -27.8896 -0.51597 13.6728 -0.0 -0.0 0.0 0.0 0.0 
2863.59 721.82 -697.059 168.682 -68.976 -179.085 -1.71831 -0.481536 -3.93038 -1.70975 -0.23066 -3.95301 -1.68569 0.721099 -3.89361 -1.70683 0.0976295 -3.95852 -18.1641 14.3754 5.01041 -18.8985 24.9803 10.4329 -0.0 0.0 -0.0 10.5361 21.9161 17.9593 1.27765 -33.616 51.7464 2.09762 -46.0929 0.892475 -54.359 -4.59072 4.89124 -3.56524 12.7065 -17.5229 -0.0 0.0 -0.0 2.7713 11.0102 -4.46762 -20.8424 17.7392 -61.4736 0.442952 12.3762 -0.0480272 -23.1162 1.35944 -2.60434 -1.15802 -12.4289 2.18989 0.0 0.0 0.0 -5.98837 13.4818 -8.95731 -4.03798 0.145067 0.6026 42.1562 15.6073 -5.13132 -40.0895 0.0 0.0 -0.0 0.0 -0.0 28.7007 23.8332 -17.8488 -11.7828 -0.303048 -1.77968 -1.35647 -25.7439 -0.20854 14.3293 -0.0 -0.0 0.0 0.0 0.0 
2873.45 718.343 -699.939 170.289 -68.8165 -177.747 -1.64413 -0.466835 -4.006 -1.63523 -0.211188 -4.02754 -1.61217 0.752825 -3.96229 -1.63406 0.118138 -4.03134 -19.4714 13.6774 4.18151 -20.2713 24.206 9.69967 -0.0 0.0 -0.0 10.4205 22.5622 17.653 2.73521 -32.7773 53.3799 2.38643 -49.7646 1.10697 -54.8824 -4.65404 4.91358 -3.81453 12.4886 -19.3176 -0.0 0.0 -0.0 2.31515 11.2298 -3.49764 -21.3946 17.1758 -62.0991 0.469598 13.0957 -0.0539018 -22.4961 1.30966 -2.54242 -1.19866 -13.7661 1.84652 0.0 0.0 0.0 -6.17055 13.7149 -8.03086 -3.53798 0.129415 0.527461 42.0637 14.3279 -5.10291 -38.0692 0.0 0.0 -0.0 0.0 -0.0 29.8275 24.745 -18.1437 -6.49596 -0.212436 -0.973772 -0.293636 -25.4359 -0.0449681 14.2544 -0.0 -0.0 0.0 0.0 0.0 
